<svg xmlns="http://www.w3.org/2000/svg" preserveAspectRatio="xMidYMid" width="28.219" height="28.25" viewBox="0 0 28.219 28.25"><path d="M14.101 28.236c-7.795 0-14.114-6.319-14.114-14.114C-.013 6.327 6.306.008 14.101.008c7.794 0 14.113 6.319 14.113 14.114 0 7.795-6.319 14.114-14.113 14.114zm7.777-19.801a6.548 6.548 0 01-2.08.795 3.276 3.276 0 00-5.583 2.988 9.303 9.303 0 01-6.752-3.423 3.277 3.277 0 001.014 4.374 3.266 3.266 0 01-1.484-.41v.041a3.278 3.278 0 002.627 3.212 3.268 3.268 0 01-1.479.056 3.278 3.278 0 003.06 2.275 6.569 6.569 0 01-4.85 1.357 9.27 9.27 0 005.022 1.472c6.026 0 9.321-4.992 9.321-9.321a8.54 8.54 0 00-.01-.424 6.654 6.654 0 001.635-1.695 6.558 6.558 0 01-1.881.515 3.286 3.286 0 001.44-1.812z" opacity=".56" fill-rule="evenodd"/></svg>