<svg xmlns="http://www.w3.org/2000/svg" width="101" height="44" viewBox="0 0 101 44"><path fill-rule="evenodd" d="M57.007 19.638V.979H61v15.106h8.414v3.553H57.007zm-3.214 0H41.519a.425.425 0 01-.426-.425V1.404c0-.235.191-.425.426-.425h12.035c.235 0 .425.19.425.425v2.785c0 .235-.19.425-.425.425h-8.467v3.754h6.487c.235 0 .425.19.425.425v2.703c0 .235-.19.425-.425.425h-6.487v4.164h8.706c.235 0 .425.19.425.425v2.703c0 .235-.19.425-.425.425zm-15.144 0H35.03a.41.41 0 01-.364-.221l-2.891-5.601a.41.41 0 00-.728 0l-2.891 5.601a.41.41 0 01-.364.221h-3.619a.41.41 0 01-.359-.606L28.879 9.8l-4.485-8.174a.41.41 0 01.36-.606h3.417c.152 0 .291.083.362.217l2.565 4.817a.41.41 0 00.723 0l2.565-4.817a.408.408 0 01.361-.217h3.418a.41.41 0 01.359.606l-4.532 8.262 5.016 9.144a.409.409 0 01-.359.606zm-17.626-.041h-3.127a.45.45 0 01-.45-.45V1.388a.45.45 0 01.45-.45h3.127a.45.45 0 01.45.45v17.759a.45.45 0 01-.45.45zm-9.101-5.388H4.434v5.04a.41.41 0 01-.41.41H.85a.41.41 0 01-.41-.41V1.409a.41.41 0 01.41-.41h11.072a2.445 2.445 0 012.445 2.445v8.32a2.445 2.445 0 01-2.445 2.445zm-1.549-8.748a.826.826 0 00-.826-.826H4.434v5.933h5.113c.456 0 .826-.37.826-.827v-4.28z"/></svg>