<svg xmlns="http://www.w3.org/2000/svg" preserveAspectRatio="xMidYMid" width="28.219" height="28.219" viewBox="0 0 28.219 28.219"><path d="M14.103 28.229c-7.795 0-14.114-6.319-14.114-14.114C-.011 6.32 6.308.001 14.103.001c7.795 0 14.114 6.319 14.114 14.114 0 7.795-6.319 14.114-14.114 14.114zm7.21-19.634c0-.867-.702-1.569-1.569-1.569H8.656c-.867 0-1.569.702-1.569 1.569l-.001 11.073a1.57 1.57 0 001.57 1.569h11.088c.867 0 1.569-.702 1.569-1.569V8.595zm-2.088 2.807h-1.677a.55.55 0 01-.549-.55V9.175a.55.55 0 01.549-.55h1.677a.55.55 0 01.55.55v1.677a.55.55 0 01-.55.55zm-5.003 5.312a2.553 2.553 0 010-5.106c1.411 0 2.758 1.029 2.758 2.552 0 1.524-1.347 2.554-2.758 2.554zm0 1.877a4.427 4.427 0 004.285-5.539c.794.001 1.241-.001 1.241-.001v6.104a.55.55 0 01-.55.55H9.246a.55.55 0 01-.55-.55v-6.104l1.241.001a4.427 4.427 0 004.285 5.539z" opacity=".6" fill-rule="evenodd"/></svg>